<svg xmlns="http://www.w3.org/2000/svg" width="257" height="30" viewBox="0 0 257 30">
    <g fill="none" fill-rule="nonzero">
        <path fill="#FFF" d="M247.034 5.712c-4.009-.214-7.772 1.636-10.705 5.032-.069-.236-1.377-5.218-7.478-4.019h-8.94l-3.746 6.564c.255-2.715-.971-7.577-7.225-7.577-1.874 0-3.188.253-4.92.989l3.756-6.603h-24.384L178.12 9.36h8.19l-11.85 8.709c.113-.285.224-.573.33-.866 2.404-6.646-.371-11.4-6.108-11.556-2.512-.068-4.725.548-6.94 1.876l.46-.808h-3.828l1.67-2.932h-11.096l-1.643 2.888h-16.827C130.647 2.633 126.743 0 120.95 0c-2.131 0-6.799.424-10.077 3.778l2.09-3.673H0v29.116h118.396l1.916-3.356c.196.48 1.744 4.022 8.352 4.022 2.17 0 7.416-.504 10.285-4.985.216.712 1.55 4.328 5.43 4.328h5.421l2.973-5.224c.373 4.063 3.436 5.675 6.707 5.856 3.152.176 5.965-.734 8.372-2.509l-1.077 1.877h24.429l2.3-4.034c.607 2.076 1.792 4.435 6.42 4.774 2.774.203 5.752-.644 7.937-2.127l-.791 1.387 20.457.005 3.593-6.329c-.379 3.31 1.577 6.79 6.504 7.07 7.01.397 11.491-4.894 13.445-9.047 6.172-13.118-.976-15.052-4.035-15.217"/>
        <path fill="#F37F00" d="M108.4 1.765L93.616 27.353h.874l14.78-25.588h-.868zm-5.345 0h1.81L90.081 27.353h-1.806l14.78-25.588zm-3.226 0l-9.461 16.39-5.33 9.198h-3.065L96.761 1.765h3.068zm-10.541 0h4.968L79.451 27.353h-4.953l14.79-25.588zm-9.596 0L64.906 27.353h7.784L87.483 1.765h-7.79zm-11.81 0H78.19L63.398 27.353H53.096L67.882 1.765zm-13.738 0h12.503L51.86 27.353H39.346L54.144 1.765zm-53.27 0h52.25L38.342 27.353H.874V1.765z"/>
        <g fill="#D52B1E">
            <path d="M256.559 6.03H257v2.132h-.298v-1.83l-.667 1.83h-.204l-.675-1.838v1.838h-.28V6.029h.463l.61 1.67zM252.963 8.1a.348.348 0 0 1-.162-.19.98.98 0 0 1-.049-.342v-.093h.216v.084c0 .141.024.244.07.309.048.065.13.097.249.097.113 0 .193-.03.238-.089.046-.059.069-.147.069-.265a.532.532 0 0 0-.043-.237.276.276 0 0 0-.097-.116 1.987 1.987 0 0 0-.18-.09l-.124-.055a1.13 1.13 0 0 1-.194-.11.418.418 0 0 1-.125-.162.664.664 0 0 1-.05-.281c0-.184.04-.318.12-.403.08-.085.21-.128.389-.128.121 0 .217.017.287.051.07.034.12.088.15.16a.82.82 0 0 1 .044.3v.055h-.21v-.056c0-.11-.02-.19-.062-.238-.042-.05-.114-.074-.217-.074-.098 0-.169.024-.213.074-.044.049-.066.124-.066.227 0 .075.01.136.032.182a.263.263 0 0 0 .084.108.895.895 0 0 0 .14.078l.117.052a.135.135 0 0 1 .022.009 1.135 1.135 0 0 1 .23.126c.05.037.093.095.13.173a.75.75 0 0 1 .056.318c0 .203-.04.352-.121.446-.081.095-.22.142-.416.142a.658.658 0 0 1-.314-.062M243.906 16.119c-.397 0-1.97-.002-3.222 0 1.157-2 2.343-3.323 3.358-3.143 1.073.19.718 1.403-.136 3.143m2.837-9.01c-5.726-.298-10.758 4.133-13.227 10.957-1.767 4.884-1.368 8.989 4.05 9.27 4.56.238 8.61-2.041 11.644-7.485h-6.99c-.952 1.428-1.854 2.309-2.721 2.143-.808-.155-.538-1.641.102-3.203h10.162c.394-.805.762-1.668 1.099-2.597 1.766-4.885.85-8.825-4.119-9.084M231.774 8.35c-3.415-.817-5.66 1.292-5.66 1.292l.748-1.296h-6.485l-11.162 19.001h7.126l6.707-11.442c.469-.811 1.109-1.742 2.065-1.542.854.179 1.107.946.827 1.461l-6.751 11.529h7.074l8.097-13.855c1.118-2.012-.72-4.702-2.586-5.148M206.511 16.486c-1.748 3.208-2.941 4.806-4.413 4.532-1.072-.2-.67-1.647.384-3.583 1.475-2.706 3.056-4.677 4.374-4.459 1.232.204.71 1.573-.345 3.51m2.653-9.376c-5.88-.299-11.403 4.132-13.938 10.956-1.814 4.884-1.048 8.988 4.515 9.27 5.62.285 11-3.051 14.006-11.142 1.815-4.885.519-8.825-4.583-9.084"/>
            <path d="M200.838 8.818l4.13-7.053H183.88l-3.548 6.056h10.375l-17.83 12.732-4.014 6.8h21.122l3.532-6.018h-9.915zM166.16 16.486c-1.748 3.208-2.942 4.807-4.413 4.532-1.073-.2-.672-1.647.384-3.584 1.473-2.705 3.055-4.675 4.373-4.458 1.233.204.71 1.573-.344 3.51m2.65-9.376c-5.88-.299-11.402 4.131-13.936 10.955-1.814 4.884-1.047 8.988 4.516 9.271 5.62.286 11-3.05 14.006-11.141 1.814-4.885.517-8.826-4.585-9.085M152.37 13.486h3.804l3.132-5.585h-3.793l1.653-2.938h-7.475l-8.958 15.932c-.817 1.526-.74 3.234.45 4.777.85 1.121 1.741 1.68 3.35 1.68h4.24l2.938-5.224h-3.2c-.246 0-.525.041-.628-.196-.055-.147-.085-.3-.02-.436l4.507-8.01zM139.445 8.162l-7.298 12.353c-.595 1.021-1.213 1.311-2.159 1.135-1.182-.221-.689-1.082-.347-1.67l7.192-11.818h-7.151s-8.132 13.469-8.128 13.475c-1.45 2.53.454 5.065 5.163 5.624 2.677.319 8.292.013 10.938-4.297a.173.173 0 0 0 .013-.012l8.896-14.79h-7.119zM119.539 10.41l-2.988 5.252h-3.638l3.274-5.755c.432-.764 1.267-1.437 2.578-1.31 1.1.105 1.454.672.774 1.814m2.917-8.54c-3.012-.379-9.412 0-12.219 5.382l-11.458 20.1h7.468l3.197-5.611h3.631l-3.199 5.61h7.412l10.558-18.461c1.756-3.255.065-6.332-5.39-7.02"/>
        </g>
    </g>
</svg>
